<?xml version="1.0" encoding="UTF-8" standalone="no"?>
<svg
   xmlns:dc="http://purl.org/dc/elements/1.1/"
   xmlns:cc="http://creativecommons.org/ns#"
   xmlns:rdf="http://www.w3.org/1999/02/22-rdf-syntax-ns#"
   xmlns:svg="http://www.w3.org/2000/svg"
   xmlns="http://www.w3.org/2000/svg"
   xmlns:sodipodi="http://sodipodi.sourceforge.net/DTD/sodipodi-0.dtd"
   xmlns:inkscape="http://www.inkscape.org/namespaces/inkscape"
   version="1.0"
   width="709px"
   height="354px"
   viewBox="0 0 7090 3540"
   preserveAspectRatio="xMidYMid meet"
   id="svg1043"
   sodipodi:docname="logo-all-white.svg"
   inkscape:version="1.0.1 (3bc2e813f5, 2020-09-07)">
  <metadata
     id="metadata1049">
    <rdf:RDF>
      <cc:Work
         rdf:about="">
        <dc:format>image/svg+xml</dc:format>
        <dc:type
           rdf:resource="http://purl.org/dc/dcmitype/StillImage" />
        <dc:title></dc:title>
      </cc:Work>
    </rdf:RDF>
  </metadata>
  <defs
     id="defs1047" />
  <sodipodi:namedview
     pagecolor="#ffffff"
     bordercolor="#666666"
     borderopacity="1"
     objecttolerance="10"
     gridtolerance="10"
     guidetolerance="10"
     inkscape:pageopacity="0"
     inkscape:pageshadow="2"
     inkscape:window-width="1920"
     inkscape:window-height="1017"
     id="namedview1045"
     showgrid="false"
     inkscape:zoom="1.3653032"
     inkscape:cx="401.52977"
     inkscape:cy="174.63054"
     inkscape:window-x="1592"
     inkscape:window-y="-8"
     inkscape:window-maximized="1"
     inkscape:current-layer="svg1043"
     inkscape:document-rotation="0" />
  <path
     d="m 1212,2589 c -152,-22 -259,-95 -288,-197 -28,-96 1,-205 68,-255 125,-94 308,-130 537,-108 62,7 115,10 117,8 3,-2 -31,-71 -75,-153 -166,-311 -177,-452 -43,-582 103,-100 239,-147 403,-140 84,4 104,9 150,35 57,32 89,78 89,127 0,91 -64,175 -173,227 -56,26 -97,37 -97,24 0,-3 14,-27 31,-55 55,-89 73,-153 70,-243 -1,-17 -13,-40 -31,-59 -27,-27 -36,-30 -75,-26 -57,7 -95,35 -129,98 -23,41 -28,63 -28,118 0,83 19,138 90,272 118,222 152,295 163,351 l 12,59 56,16 c 31,8 76,22 100,30 54,17 61,17 61,3 0,-24 77,-137 134,-198 72,-75 142,-123 232,-157 57,-21 124,-32 124,-19 0,2 -25,48 -55,102 -120,214 -195,428 -195,555 0,57 4,71 26,97 29,35 75,41 123,16 51,-26 129,-123 177,-220 l 47,-94 -38,-56 c -58,-87 -79,-156 -79,-255 0,-96 20,-148 74,-194 25,-21 42,-26 84,-26 61,0 107,25 143,78 51,77 55,242 8,374 -35,98 -35,110 -5,119 41,12 183,9 214,-4 26,-11 36,-33 106,-222 l 78,-210 59,-12 c 32,-6 107,-20 166,-31 98,-18 108,-18 102,-3 -67,167 -229,615 -233,643 -15,114 66,138 217,62 68,-34 68,-34 73,-82 4,-39 170,-509 198,-562 6,-10 56,-24 165,-44 86,-15 158,-26 161,-24 2,3 -43,131 -102,284 -108,284 -134,361 -134,402 0,30 43,72 74,72 68,0 266,-98 266,-132 0,-18 184,-555 194,-565 3,-3 78,-20 166,-38 126,-25 160,-29 156,-18 -51,132 -266,738 -266,748 0,26 17,16 33,-17 8,-18 29,-68 46,-111 38,-94 80,-178 136,-272 24,-40 44,-88 48,-112 22,-172 196,-317 291,-242 47,37 36,56 -99,183 l -125,118 v 47 c 0,97 67,171 155,171 73,0 82,-7 105,-74 32,-97 88,-183 176,-271 125,-125 242,-184 385,-193 158,-10 229,67 199,215 -25,118 -92,218 -175,259 -60,29 -92,27 -125,-6 -25,-25 -26,-85 -2,-122 19,-30 76,-77 131,-110 20,-11 55,-39 79,-62 50,-48 58,-94 20,-120 -32,-23 -67,-20 -127,10 -113,57 -237,287 -276,513 -9,47 -12,100 -9,118 24,127 216,133 455,12 l 76,-38 6,-58 c 9,-82 52,-225 94,-311 51,-104 145,-202 236,-247 119,-58 271,-68 359,-24 53,27 76,90 59,163 -26,117 -141,229 -328,322 l -113,56 v 61 c 0,109 52,160 165,160 91,0 168,-22 282,-78 58,-29 107,-47 110,-42 8,13 -17,31 -97,72 -85,43 -184,72 -290,85 -232,28 -410,-10 -456,-96 -10,-19 -21,-33 -24,-32 -208,105 -251,117 -425,125 -153,6 -225,-5 -312,-47 -50,-25 -65,-38 -82,-73 -12,-25 -21,-63 -21,-90 v -47 h -47 c -87,-1 -182,-61 -224,-142 -11,-21 -23,-38 -28,-38 -14,0 -61,78 -149,249 -76,147 -88,165 -121,178 -78,33 -210,-8 -237,-73 -8,-19 -16,-34 -19,-34 -2,0 -33,16 -68,35 -106,58 -170,76 -277,77 -117,2 -169,-12 -221,-59 l -40,-36 -52,25 c -108,52 -155,63 -282,63 -110,0 -124,-2 -164,-25 -80,-45 -102,-104 -78,-210 l 8,-35 h -103 c -57,0 -119,-3 -138,-7 -34,-7 -36,-6 -65,43 -103,174 -297,273 -500,256 -126,-11 -200,-49 -237,-120 -21,-41 -26,-113 -15,-242 2,-28 -2,-31 -78,-62 -44,-18 -85,-32 -91,-33 -7,0 -14,26 -18,60 -9,78 -64,188 -118,234 -50,43 -174,109 -248,130 -132,40 -291,53 -418,35 z m 273,-49 c 63,-31 137,-107 171,-177 33,-66 44,-179 25,-250 l -11,-41 -85,-7 c -111,-10 -179,0 -253,35 -124,58 -192,151 -192,263 0,93 54,171 137,197 47,16 156,5 208,-20 z m 5117,-475 c 106,-140 142,-240 102,-279 -19,-20 -27,-20 -65,-1 -34,18 -87,96 -130,193 -32,70 -99,264 -99,284 0,20 128,-111 192,-197 z M 2873,1930 c 2,-131 -7,-170 -45,-194 -25,-15 -57,19 -69,74 -17,76 21,254 70,329 l 16,25 13,-55 c 8,-30 15,-110 15,-179 z"
     id="path1017"
     style="fill:#ffffff;stroke:none" />
  <path
     d="m 278,1868 c -53,-14 -72,-40 -71,-96 0,-31 38,-165 112,-397 62,-192 113,-350 114,-351 7,-4 180,-44 183,-42 1,2 -53,179 -122,393 -68,215 -124,402 -124,416 0,15 7,32 15,39 23,19 90,6 144,-27 45,-28 46,-30 53,-93 8,-72 65,-198 116,-260 70,-84 229,-128 292,-82 l 29,22 90,-19 90,-18 -70,200 c -38,111 -69,214 -69,229 0,18 8,33 23,43 27,18 64,10 134,-30 25,-14 48,-24 50,-22 6,7 -33,36 -87,64 -48,24 -66,28 -142,28 -78,0 -89,-2 -112,-24 l -26,-25 -48,24 c -63,32 -163,38 -211,13 -29,-15 -40,-27 -58,-61 -1,-2 -21,8 -45,22 -88,51 -192,73 -260,54 z m 593,-58 c 12,-7 19,-21 19,-41 0,-17 25,-106 57,-197 l 56,-165 -22,-19 c -58,-46 -104,-7 -160,135 -70,182 -85,255 -58,289 22,29 50,28 108,-2 z"
     id="path1019"
     style="fill:#ffffff;stroke:none" />
  <g
     id="layer102"
     fill="#685445"
     stroke="none"
     style="fill:#ffffff">
    <path
       d="M3680 1104 c0 -33 170 -199 223 -217 38 -14 112 37 144 97 14 26 13 31 -5 55 -15 20 -37 30 -93 43 -87 20 -269 35 -269 22z"
       id="path1022"
       style="fill:#ffffff" />
  </g>
  <g
     id="layer103"
     fill="#e74758"
     stroke="none"
     style="fill:#ffffff">
    <path
       d="M3528 1599 c-132 -13 -358 -62 -358 -78 0 -14 281 -194 388 -248 118 -61 155 -66 201 -28 44 37 66 105 66 200 0 88 -16 129 -58 144 -38 14 -149 19 -239 10z"
       id="path1025"
       style="fill:#ffffff" />
  </g>
  <g
     id="layer104"
     fill="#30bacd"
     stroke="none"
     style="fill:#ffffff">
    <path
       d="M2813 1258 c-71 -87 -122 -167 -133 -207 -18 -65 37 -136 123 -159 70 -19 87 2 95 124 5 79 -12 265 -27 292 -5 8 -24 -8 -58 -50z"
       id="path1028"
       style="fill:#ffffff" />
  </g>
  <g
     id="layer105"
     fill="#b7ce3f"
     stroke="none"
     style="fill:#ffffff">
    <path
       d="M3704 483 c11 -46 81 -186 111 -221 36 -43 64 -53 109 -41 48 13 106 65 106 93 0 13 -10 32 -22 43 -39 36 -146 94 -230 124 l-80 30 6 -28z"
       id="path1031"
       style="fill:#ffffff" />
  </g>
  <g
     id="layer106"
     fill="#d98f62"
     stroke="none"
     style="fill:#ffffff">
    <path
       d="M3007 846 c-13 -34 -29 -182 -25 -233 6 -74 28 -93 107 -93 61 0 101 19 101 48 0 42 -116 241 -163 280 -12 10 -16 10 -20 -2z"
       id="path1034"
       style="fill:#ffffff" />
  </g>
  <g
     id="layer107"
     fill="#ffed00"
     stroke="none"
     style="fill:#ffffff">
    <path
       d="M3070 1282 c0 -29 67 -238 96 -301 40 -87 56 -107 91 -116 57 -14 175 80 189 153 5 26 0 37 -39 79 -51 54 -150 117 -257 162 -80 34 -80 34 -80 23z"
       id="path1037"
       style="fill:#ffffff" />
  </g>
  <g
     id="layer108"
     fill="#dacaad"
     stroke="none"
     style="fill:#ffffff">
    <path
       d="M2716 505 c-106 -131 -134 -218 -86 -271 24 -26 93 -63 118 -64 6 0 21 9 32 20 18 18 20 33 20 132 0 115 -16 238 -30 238 -5 0 -29 -25 -54 -55z"
       id="path1040"
       style="fill:#ffffff" />
  </g>
  <g
     inkscape:groupmode="layer"
     id="layer1"
     inkscape:label="texte"
     style="display:inline">
    <text
       xml:space="preserve"
       style="font-style:normal;font-weight:normal;font-size:412.368px;line-height:1.25;font-family:sans-serif;letter-spacing:0px;word-spacing:0px;fill:#ffffff;fill-opacity:1;stroke:none;stroke-width:10.3092;"
       x="116.14552"
       y="3613.7297"
       id="text1085"
       transform="scale(1.1061218,0.9040596)"><tspan
         sodipodi:role="line"
         id="tspan1083"
         x="116.14552"
         y="3613.7297"
         style="font-style:normal;font-variant:normal;font-weight:normal;font-stretch:normal;font-family:'Noto Sans JP';-inkscape-font-specification:'Noto Sans JP';stroke-width:10.3092;fill:#ffffff;">Centre Socio Culturel - Le Haillan</tspan></text>
  </g>
</svg>
