<?xml version="1.0" encoding="UTF-8" standalone="no"?>
<svg
   xmlns:dc="http://purl.org/dc/elements/1.1/"
   xmlns:cc="http://creativecommons.org/ns#"
   xmlns:rdf="http://www.w3.org/1999/02/22-rdf-syntax-ns#"
   xmlns:svg="http://www.w3.org/2000/svg"
   xmlns="http://www.w3.org/2000/svg"
   xmlns:sodipodi="http://sodipodi.sourceforge.net/DTD/sodipodi-0.dtd"
   xmlns:inkscape="http://www.inkscape.org/namespaces/inkscape"
   version="1.0"
   width="709px"
   height="354px"
   viewBox="0 0 7090 3540"
   preserveAspectRatio="xMidYMid meet"
   id="svg1043"
   sodipodi:docname="logo.svg"
   inkscape:version="1.0.1 (3bc2e813f5, 2020-09-07)">
  <metadata
     id="metadata1049">
    <rdf:RDF>
      <cc:Work
         rdf:about="">
        <dc:format>image/svg+xml</dc:format>
        <dc:type
           rdf:resource="http://purl.org/dc/dcmitype/StillImage" />
      </cc:Work>
    </rdf:RDF>
  </metadata>
  <defs
     id="defs1047" />
  <sodipodi:namedview
     pagecolor="#ffffff"
     bordercolor="#666666"
     borderopacity="1"
     objecttolerance="10"
     gridtolerance="10"
     guidetolerance="10"
     inkscape:pageopacity="0"
     inkscape:pageshadow="2"
     inkscape:window-width="1600"
     inkscape:window-height="837"
     id="namedview1045"
     showgrid="false"
     inkscape:zoom="1.3653032"
     inkscape:cx="389.33872"
     inkscape:cy="174.63054"
     inkscape:window-x="-8"
     inkscape:window-y="167"
     inkscape:window-maximized="1"
     inkscape:current-layer="svg1043" />
  <path
     d="m 225,3261 c -51,-12 -83,-40 -101,-87 -29,-75 6,-156 79,-183 48,-19 147,-11 147,11 0,6 -13,6 -32,1 -118,-29 -204,42 -184,150 7,39 51,83 92,93 26,7 87,1 117,-11 9,-4 17,-3 17,3 0,8 -93,36 -103,31 -1,-1 -16,-4 -32,-8 z"
     id="path957"
     style="fill:#19171b;stroke:none" />
  <path
     d="m 485,3261 c -48,-20 -72,-78 -54,-130 13,-37 35,-51 82,-51 36,0 60,19 71,58 7,21 6,22 -68,22 -68,0 -76,2 -76,19 0,10 9,30 21,45 22,28 64,35 100,16 11,-6 19,-7 19,-1 0,5 -14,14 -31,20 -36,13 -37,13 -64,2 z m 85,-121 c 0,-18 -40,-50 -62,-50 -29,0 -42,9 -57,38 -12,22 -11,22 54,22 37,0 65,-4 65,-10 z"
     id="path959"
     style="fill:#19171b;stroke:none" />
  <path
     d="m 938,3259 c -15,-8 -18,-24 -18,-89 0,-74 -1,-79 -22,-83 -23,-4 -23,-4 -1,-6 16,-1 23,-9 26,-28 l 4,-28 2,27 c 1,22 6,27 34,31 l 32,4 -32,1 -33,2 v 64 c 0,82 6,96 39,96 20,0 23,2 11,10 -18,12 -21,12 -42,-1 z"
     id="path961"
     style="fill:#19171b;stroke:none" />
  <path
     d="m 1265,3260 c -49,-19 -72,-73 -55,-125 16,-49 63,-69 115,-49 14,6 45,53 45,69 0,3 -34,5 -75,5 -72,0 -75,1 -75,23 0,50 71,83 121,57 12,-7 19,-7 19,-1 0,9 -17,16 -60,26 -8,2 -24,0 -35,-5 z m 85,-118 c 0,-4 -7,-18 -16,-30 -19,-28 -67,-29 -94,-2 -33,33 -24,40 45,40 36,0 65,-3 65,-8 z"
     id="path963"
     style="fill:#19171b;stroke:none" />
  <path
     d="m 1628,3258 c -16,-5 -28,-14 -28,-19 0,-6 8,-6 19,1 54,29 115,-3 109,-57 -2,-23 -13,-33 -63,-57 -67,-31 -75,-39 -75,-77 0,-34 39,-69 77,-69 39,0 65,9 58,21 -3,4 -17,4 -31,-1 -40,-16 -78,7 -82,48 -3,31 -1,33 62,62 69,31 85,53 72,105 -10,39 -70,61 -118,43 z"
     id="path965"
     style="fill:#19171b;stroke:none" />
  <path
     d="m 1874,3256 c -57,-25 -68,-103 -22,-153 16,-17 33,-23 64,-23 35,0 47,5 68,31 34,40 34,80 -1,118 -34,37 -68,45 -109,27 z m 93,-28 c 33,-31 32,-90 -3,-117 -15,-12 -37,-21 -49,-21 -39,0 -75,37 -75,78 0,72 76,108 127,60 z"
     id="path967"
     style="fill:#19171b;stroke:none" />
  <path
     d="m 2133,3256 c -17,-8 -37,-24 -43,-37 -18,-32 -6,-100 20,-121 23,-19 104,-25 114,-9 3,5 -13,6 -37,4 -58,-6 -87,21 -87,82 0,56 29,79 90,73 22,-2 40,0 40,4 0,5 -6,8 -12,8 -7,0 -22,2 -33,5 -11,3 -34,-2 -52,-9 z"
     id="path969"
     style="fill:#19171b;stroke:none" />
  <path
     d="m 2470,3263 c -54,-20 -81,-83 -56,-132 20,-37 44,-51 88,-51 38,0 48,6 71,40 33,48 11,120 -44,139 -35,12 -37,12 -59,4 z m 77,-35 c 33,-31 32,-90 -3,-117 -35,-28 -69,-26 -99,4 -72,71 28,182 102,113 z"
     id="path971"
     style="fill:#19171b;stroke:none" />
  <path
     d="m 2905,3255 c -107,-38 -125,-181 -32,-249 22,-16 44,-21 97,-21 38,0 72,3 76,8 15,15 -5,18 -47,7 -114,-29 -207,79 -156,180 29,57 115,86 181,60 14,-5 28,-5 31,0 3,4 -18,13 -45,19 -61,13 -56,13 -105,-4 z"
     id="path973"
     style="fill:#19171b;stroke:none" />
  <path
     d="m 3180,3263 c -42,-15 -50,-34 -48,-112 l 2,-76 3,70 c 3,46 10,76 20,87 19,21 85,24 101,5 6,-7 13,-46 15,-87 l 3,-75 2,90 c 2,88 1,91 -20,92 -13,1 -32,4 -43,7 -11,2 -27,2 -35,-1 z"
     id="path975"
     style="fill:#19171b;stroke:none" />
  <path
     d="m 3528,3259 c -15,-8 -18,-24 -18,-89 0,-74 -1,-79 -22,-83 -23,-4 -23,-4 -1,-6 16,-1 23,-9 26,-28 l 4,-28 2,27 c 1,22 6,27 34,31 l 32,4 -32,1 -33,2 v 64 c 0,82 6,96 39,96 20,0 23,2 11,10 -18,12 -21,12 -42,-1 z"
     id="path977"
     style="fill:#19171b;stroke:none" />
  <path
     d="m 3690,3259 c -36,-14 -40,-26 -38,-109 l 2,-75 3,70 c 3,46 10,76 20,87 19,21 85,24 101,5 6,-7 13,-46 15,-87 l 3,-75 2,90 c 2,88 1,91 -20,92 -13,1 -32,4 -43,7 -11,2 -31,0 -45,-5 z"
     id="path979"
     style="fill:#19171b;stroke:none" />
  <path
     d="m 4085,3256 c -31,-13 -55,-51 -55,-87 0,-28 26,-75 45,-83 52,-19 115,11 115,56 0,16 -9,18 -70,18 -67,0 -70,1 -70,23 0,13 11,34 25,47 21,20 31,22 72,17 28,-4 42,-3 33,2 -30,17 -66,19 -95,7 z m 89,-118 c -29,-51 -70,-62 -104,-28 -33,33 -24,40 46,40 49,0 63,-3 58,-12 z"
     id="path981"
     style="fill:#19171b;stroke:none" />
  <path
     d="m 5215,3256 c -85,-37 -66,-176 24,-176 40,0 81,32 81,63 0,14 -11,17 -68,17 -38,0 -71,3 -75,6 -11,11 14,61 38,74 14,8 39,10 61,7 21,-4 33,-3 28,2 -18,16 -59,20 -89,7 z m 85,-120 c 0,-41 -67,-61 -102,-29 -34,31 -23,43 42,43 45,0 60,-3 60,-14 z"
     id="path983"
     style="fill:#19171b;stroke:none" />
  <path
     d="m 5891,3251 c -40,-40 -14,-86 54,-97 34,-5 45,-11 45,-24 0,-29 -26,-43 -70,-37 -23,3 -38,1 -34,-4 8,-13 88,-11 102,3 7,7 12,43 12,90 0,74 -1,78 -22,78 -13,0 -33,3 -45,6 -14,4 -28,-1 -42,-15 z m 99,-47 v -47 l -36,6 c -45,7 -64,23 -64,52 0,30 7,35 57,35 h 43 z"
     id="path985"
     style="fill:#19171b;stroke:none" />
  <path
     d="m 6461,3244 c -25,-32 -25,-33 -6,-61 10,-14 31,-24 60,-29 34,-5 45,-11 45,-24 0,-27 -26,-43 -64,-38 -19,2 -32,0 -30,-4 8,-12 79,-9 92,4 7,7 12,43 12,90 0,74 -1,78 -22,78 -13,0 -33,3 -44,6 -15,4 -27,-2 -43,-22 z m 99,-40 v -47 l -36,6 c -45,7 -64,23 -64,52 0,30 7,35 57,35 h 43 z"
     id="path987"
     style="fill:#19171b;stroke:none" />
  <path
     d="m 672,3178 -2,-87 33,-6 c 56,-11 90,-2 104,25 15,30 17,150 3,150 -6,0 -10,-29 -10,-68 0,-78 -16,-102 -66,-102 -47,0 -53,10 -57,95 l -3,80 z"
     id="path989"
     style="fill:#19171b;stroke:none" />
  <path
     d="m 1060,3177 v -83 l 43,-11 c 26,-7 46,-8 52,-2 5,5 1,9 -14,9 -51,0 -61,15 -61,95 0,43 -4,75 -10,75 -6,0 -10,-34 -10,-83 z"
     id="path991"
     style="fill:#19171b;stroke:none" />
  <path
     d="m 2314,3170 c 0,-52 1,-74 3,-47 2,26 2,68 0,95 -2,26 -3,4 -3,-48 z"
     id="path993"
     style="fill:#19171b;stroke:none" />
  <path
     d="m 3386,3244 c -13,-12 -16,-40 -16,-140 0,-76 4,-124 10,-124 6,0 10,50 10,130 0,126 1,131 23,140 16,6 17,9 5,9 -9,1 -24,-6 -32,-15 z"
     id="path995"
     style="fill:#19171b;stroke:none" />
  <path
     d="m 3892,3179 -2,-86 40,-12 c 39,-11 60,-9 60,8 0,4 -12,6 -28,3 -43,-6 -60,22 -65,103 l -3,70 z"
     id="path997"
     style="fill:#19171b;stroke:none" />
  <path
     d="m 4293,3253 c -10,-3 -12,-40 -11,-141 l 2,-137 6,130 c 5,126 6,130 30,142 21,11 22,13 5,12 -11,0 -26,-3 -32,-6 z"
     id="path999"
     style="fill:#19171b;stroke:none" />
  <path
     d="m 4952,3118 2,-143 3,137 4,137 72,4 72,3 -77,2 -78,2 z"
     id="path1001"
     style="fill:#19171b;stroke:none" />
  <path
     d="m 5564,3120 c 0,-80 1,-115 3,-77 l 4,67 h 99 100 v -65 c 0,-37 4,-65 10,-65 6,0 10,53 10,140 0,87 -4,140 -10,140 -6,0 -10,-28 -10,-65 v -65 h -100 -99 l -4,68 c -2,37 -3,2 -3,-78 z"
     id="path1003"
     style="fill:#19171b;stroke:none" />
  <path
     d="m 6090,3170 c 0,-53 4,-90 10,-90 6,0 10,37 10,90 0,53 -4,90 -10,90 -6,0 -10,-37 -10,-90 z"
     id="path1005"
     style="fill:#19171b;stroke:none" />
  <path
     d="m 6210,3241 c -13,-26 -13,-261 0,-261 6,0 10,50 10,130 0,126 1,131 23,140 l 22,9 h -22 c -12,1 -27,-8 -33,-18 z"
     id="path1007"
     style="fill:#19171b;stroke:none" />
  <path
     d="m 6342,3248 c -8,-8 -11,-52 -10,-142 l 2,-131 3,110 c 4,135 8,153 36,165 21,8 21,9 2,9 -12,1 -26,-4 -33,-11 z"
     id="path1009"
     style="fill:#19171b;stroke:none" />
  <path
     d="m 6662,3179 c -2,-97 -1,-99 80,-99 52,0 68,26 68,112 0,39 -4,68 -10,68 -6,0 -10,-29 -10,-68 0,-78 -16,-102 -66,-102 -47,0 -53,10 -57,95 l -3,80 z"
     id="path1011"
     style="fill:#19171b;stroke:none" />
  <path
     d="m 2301,3006 c -9,-10 -8,-16 3,-25 10,-9 16,-8 25,3 9,10 8,16 -3,25 -10,9 -16,8 -25,-3 z"
     id="path1013"
     style="fill:#19171b;stroke:none" />
  <path
     d="m 6082,2993 c 2,-10 10,-18 18,-18 22,0 18,29 -3,33 -14,3 -18,-1 -15,-15 z"
     id="path1015"
     style="fill:#19171b;stroke:none" />
  <path
     d="m 1212,2589 c -152,-22 -259,-95 -288,-197 -28,-96 1,-205 68,-255 125,-94 308,-130 537,-108 62,7 115,10 117,8 3,-2 -31,-71 -75,-153 -166,-311 -177,-452 -43,-582 103,-100 239,-147 403,-140 84,4 104,9 150,35 57,32 89,78 89,127 0,91 -64,175 -173,227 -56,26 -97,37 -97,24 0,-3 14,-27 31,-55 55,-89 73,-153 70,-243 -1,-17 -13,-40 -31,-59 -27,-27 -36,-30 -75,-26 -57,7 -95,35 -129,98 -23,41 -28,63 -28,118 0,83 19,138 90,272 118,222 152,295 163,351 l 12,59 56,16 c 31,8 76,22 100,30 54,17 61,17 61,3 0,-24 77,-137 134,-198 72,-75 142,-123 232,-157 57,-21 124,-32 124,-19 0,2 -25,48 -55,102 -120,214 -195,428 -195,555 0,57 4,71 26,97 29,35 75,41 123,16 51,-26 129,-123 177,-220 l 47,-94 -38,-56 c -58,-87 -79,-156 -79,-255 0,-96 20,-148 74,-194 25,-21 42,-26 84,-26 61,0 107,25 143,78 51,77 55,242 8,374 -35,98 -35,110 -5,119 41,12 183,9 214,-4 26,-11 36,-33 106,-222 l 78,-210 59,-12 c 32,-6 107,-20 166,-31 98,-18 108,-18 102,-3 -67,167 -229,615 -233,643 -15,114 66,138 217,62 68,-34 68,-34 73,-82 4,-39 170,-509 198,-562 6,-10 56,-24 165,-44 86,-15 158,-26 161,-24 2,3 -43,131 -102,284 -108,284 -134,361 -134,402 0,30 43,72 74,72 68,0 266,-98 266,-132 0,-18 184,-555 194,-565 3,-3 78,-20 166,-38 126,-25 160,-29 156,-18 -51,132 -266,738 -266,748 0,26 17,16 33,-17 8,-18 29,-68 46,-111 38,-94 80,-178 136,-272 24,-40 44,-88 48,-112 22,-172 196,-317 291,-242 47,37 36,56 -99,183 l -125,118 v 47 c 0,97 67,171 155,171 73,0 82,-7 105,-74 32,-97 88,-183 176,-271 125,-125 242,-184 385,-193 158,-10 229,67 199,215 -25,118 -92,218 -175,259 -60,29 -92,27 -125,-6 -25,-25 -26,-85 -2,-122 19,-30 76,-77 131,-110 20,-11 55,-39 79,-62 50,-48 58,-94 20,-120 -32,-23 -67,-20 -127,10 -113,57 -237,287 -276,513 -9,47 -12,100 -9,118 24,127 216,133 455,12 l 76,-38 6,-58 c 9,-82 52,-225 94,-311 51,-104 145,-202 236,-247 119,-58 271,-68 359,-24 53,27 76,90 59,163 -26,117 -141,229 -328,322 l -113,56 v 61 c 0,109 52,160 165,160 91,0 168,-22 282,-78 58,-29 107,-47 110,-42 8,13 -17,31 -97,72 -85,43 -184,72 -290,85 -232,28 -410,-10 -456,-96 -10,-19 -21,-33 -24,-32 -208,105 -251,117 -425,125 -153,6 -225,-5 -312,-47 -50,-25 -65,-38 -82,-73 -12,-25 -21,-63 -21,-90 v -47 h -47 c -87,-1 -182,-61 -224,-142 -11,-21 -23,-38 -28,-38 -14,0 -61,78 -149,249 -76,147 -88,165 -121,178 -78,33 -210,-8 -237,-73 -8,-19 -16,-34 -19,-34 -2,0 -33,16 -68,35 -106,58 -170,76 -277,77 -117,2 -169,-12 -221,-59 l -40,-36 -52,25 c -108,52 -155,63 -282,63 -110,0 -124,-2 -164,-25 -80,-45 -102,-104 -78,-210 l 8,-35 h -103 c -57,0 -119,-3 -138,-7 -34,-7 -36,-6 -65,43 -103,174 -297,273 -500,256 -126,-11 -200,-49 -237,-120 -21,-41 -26,-113 -15,-242 2,-28 -2,-31 -78,-62 -44,-18 -85,-32 -91,-33 -7,0 -14,26 -18,60 -9,78 -64,188 -118,234 -50,43 -174,109 -248,130 -132,40 -291,53 -418,35 z m 273,-49 c 63,-31 137,-107 171,-177 33,-66 44,-179 25,-250 l -11,-41 -85,-7 c -111,-10 -179,0 -253,35 -124,58 -192,151 -192,263 0,93 54,171 137,197 47,16 156,5 208,-20 z m 5117,-475 c 106,-140 142,-240 102,-279 -19,-20 -27,-20 -65,-1 -34,18 -87,96 -130,193 -32,70 -99,264 -99,284 0,20 128,-111 192,-197 z M 2873,1930 c 2,-131 -7,-170 -45,-194 -25,-15 -57,19 -69,74 -17,76 21,254 70,329 l 16,25 13,-55 c 8,-30 15,-110 15,-179 z"
     id="path1017"
     style="fill:#19171b;stroke:none" />
  <path
     d="m 278,1868 c -53,-14 -72,-40 -71,-96 0,-31 38,-165 112,-397 62,-192 113,-350 114,-351 7,-4 180,-44 183,-42 1,2 -53,179 -122,393 -68,215 -124,402 -124,416 0,15 7,32 15,39 23,19 90,6 144,-27 45,-28 46,-30 53,-93 8,-72 65,-198 116,-260 70,-84 229,-128 292,-82 l 29,22 90,-19 90,-18 -70,200 c -38,111 -69,214 -69,229 0,18 8,33 23,43 27,18 64,10 134,-30 25,-14 48,-24 50,-22 6,7 -33,36 -87,64 -48,24 -66,28 -142,28 -78,0 -89,-2 -112,-24 l -26,-25 -48,24 c -63,32 -163,38 -211,13 -29,-15 -40,-27 -58,-61 -1,-2 -21,8 -45,22 -88,51 -192,73 -260,54 z m 593,-58 c 12,-7 19,-21 19,-41 0,-17 25,-106 57,-197 l 56,-165 -22,-19 c -58,-46 -104,-7 -160,135 -70,182 -85,255 -58,289 22,29 50,28 108,-2 z"
     id="path1019"
     style="fill:#19171b;stroke:none" />
  <g
     id="layer102"
     fill="#685445"
     stroke="none">
    <path
       d="M3680 1104 c0 -33 170 -199 223 -217 38 -14 112 37 144 97 14 26 13 31 -5 55 -15 20 -37 30 -93 43 -87 20 -269 35 -269 22z"
       id="path1022" />
  </g>
  <g
     id="layer103"
     fill="#e74758"
     stroke="none">
    <path
       d="M3528 1599 c-132 -13 -358 -62 -358 -78 0 -14 281 -194 388 -248 118 -61 155 -66 201 -28 44 37 66 105 66 200 0 88 -16 129 -58 144 -38 14 -149 19 -239 10z"
       id="path1025" />
  </g>
  <g
     id="layer104"
     fill="#30bacd"
     stroke="none">
    <path
       d="M2813 1258 c-71 -87 -122 -167 -133 -207 -18 -65 37 -136 123 -159 70 -19 87 2 95 124 5 79 -12 265 -27 292 -5 8 -24 -8 -58 -50z"
       id="path1028" />
  </g>
  <g
     id="layer105"
     fill="#b7ce3f"
     stroke="none">
    <path
       d="M3704 483 c11 -46 81 -186 111 -221 36 -43 64 -53 109 -41 48 13 106 65 106 93 0 13 -10 32 -22 43 -39 36 -146 94 -230 124 l-80 30 6 -28z"
       id="path1031" />
  </g>
  <g
     id="layer106"
     fill="#d98f62"
     stroke="none">
    <path
       d="M3007 846 c-13 -34 -29 -182 -25 -233 6 -74 28 -93 107 -93 61 0 101 19 101 48 0 42 -116 241 -163 280 -12 10 -16 10 -20 -2z"
       id="path1034" />
  </g>
  <g
     id="layer107"
     fill="#ffed00"
     stroke="none">
    <path
       d="M3070 1282 c0 -29 67 -238 96 -301 40 -87 56 -107 91 -116 57 -14 175 80 189 153 5 26 0 37 -39 79 -51 54 -150 117 -257 162 -80 34 -80 34 -80 23z"
       id="path1037" />
  </g>
  <g
     id="layer108"
     fill="#dacaad"
     stroke="none">
    <path
       d="M2716 505 c-106 -131 -134 -218 -86 -271 24 -26 93 -63 118 -64 6 0 21 9 32 20 18 18 20 33 20 132 0 115 -16 238 -30 238 -5 0 -29 -25 -54 -55z"
       id="path1040" />
  </g>
  <text
     xml:space="preserve"
     style="font-style:normal;font-weight:normal;font-size:400px;line-height:1.25;font-family:sans-serif;letter-spacing:0px;word-spacing:0px;fill:#000000;fill-opacity:1;stroke:none;stroke-width:10"
     x="520.03101"
     y="373.5434"
     id="text1085"><tspan
       sodipodi:role="line"
       id="tspan1083"
       x="520.03101"
       y="373.5434"
       style="font-style:normal;font-variant:normal;font-weight:normal;font-stretch:normal;font-family:'Rockwell Condensed';-inkscape-font-specification:'Rockwell Condensed, ';stroke-width:10">Centre Socio Culturel - Le Haillan</tspan></text>
</svg>
